<svg width="64" height="64" viewBox="0 0 64 64" fill="none" xmlns="http://www.w3.org/2000/svg">
  <!-- Calgary Red background with rounded corners -->
  <rect x="4" y="4" width="56" height="56" rx="12" fill="#C8102E"/>
  
  <!-- North Star at top (Canadian identity, exploration) -->
  <path d="M32 6 L34 9 L37 9 L35 12 L38 13 L35 14 L35 17 L32 18 L29 17 L29 14 L26 13 L29 12 L27 9 L30 9 Z" 
        fill="white" opacity="0.6"/>
  <path d="M32 18 L32 20" stroke="white" stroke-width="1.5" opacity="0.4"/>
  <path d="M32 20 L29 23" stroke="white" stroke-width="1.5" opacity="0.4"/>
  <path d="M32 20 L35 23" stroke="white" stroke-width="1.5" opacity="0.4"/>
  
  <!-- White houses representing neighbourhoods -->
  
  <!-- House 1 (left) -->
  <path d="M12 30 L18 24 L24 30 V44 H12 V30Z" fill="white"/>
  <rect x="15" y="36" width="6" height="8" rx="1" fill="#C8102E"/>
  
  <!-- House 2 (center, larger) -->
  <path d="M26 28 L34 20 L42 28 V46 H26 V28Z" fill="white"/>
  <rect x="31" y="36" width="8" height="10" rx="1" fill="#C8102E"/>
  
  <!-- House 3 (right) -->
  <path d="M40 30 L46 24 L52 30 V44 H40 V30Z" fill="white"/>
  <rect x="43" y="36" width="6" height="8" rx="1" fill="#C8102E"/>
  
  <!-- Community connection dots (grey) -->
  <circle cx="18" cy="40" r="2" fill="#6B7280"/>
  <circle cx="34" cy="41" r="2" fill="#6B7280"/>
  <circle cx="46" cy="40" r="2" fill="#6B7280"/>
  
  <!-- Connection line (following star direction) -->
  <path d="M18 40 L34 41 L46 40" stroke="#6B7280" stroke-width="2" stroke-linecap="round"/>
</svg>
