<svg width="64" height="64" viewBox="0 0 64 64" fill="none" xmlns="http://www.w3.org/2000/svg">
  <!-- Calgary Red background with rounded corners -->
  <rect x="4" y="4" width="56" height="56" rx="12" fill="#C8102E"/>
  
  <!-- Subtle hockey stick silhouette at top (Canadian sports culture) -->
  <path d="M20 8 Q22 6 26 8 L28 14 L26 16 L24 20 L22 24 L20 26" 
        stroke="#6B7280" stroke-width="2" fill="none" opacity="0.5" stroke-linecap="round"/>
  <!-- Puck -->
  <circle cx="20" cy="27" r="1.5" fill="#6B7280" opacity="0.5"/>
  
  <!-- White houses representing neighbourhoods -->
  
  <!-- House 1 (left) -->
  <path d="M12 28 L18 22 L24 28 V42 H12 V28Z" fill="white"/>
  <rect x="15" y="34" width="6" height="8" rx="1" fill="#C8102E"/>
  
  <!-- House 2 (center, larger) -->
  <path d="M26 26 L34 18 L42 26 V44 H26 V26Z" fill="white"/>
  <rect x="31" y="34" width="8" height="10" rx="1" fill="#C8102E"/>
  
  <!-- House 3 (right) -->
  <path d="M40 28 L46 22 L52 28 V42 H40 V28Z" fill="white"/>
  <rect x="43" y="34" width="6" height="8" rx="1" fill="#C8102E"/>
  
  <!-- Community connection dots (grey) -->
  <circle cx="18" cy="38" r="2" fill="#6B7280"/>
  <circle cx="34" cy="39" r="2" fill="#6B7280"/>
  <circle cx="46" cy="38" r="2" fill="#6B7280"/>
  
  <!-- Connection line -->
  <path d="M18 38 L34 39 L46 38" stroke="#6B7280" stroke-width="2" stroke-linecap="round"/>
</svg>
