<svg width="64" height="64" viewBox="0 0 64 64" fill="none" xmlns="http://www.w3.org/2000/svg">
  <!-- Calgary Red background with rounded corners -->
  <rect x="4" y="4" width="56" height="56" rx="12" fill="#C8102E"/>
  
  <!-- Subtle cowboy hat silhouette at top (Stampede flair) -->
  <path d="M24 8 Q28 4 32 6 Q36 4 40 8 L41 11 Q38 13 36 14 Q32 16 28 14 Q26 13 23 11 Z" 
        fill="#6B7280" opacity="0.5"/>
  <!-- Hat brim detail -->
  <path d="M20 11 Q32 14 44 11 L44 12 Q32 15 20 12 Z" 
        fill="#6B7280" opacity="0.4"/>
  
  <!-- White houses representing neighbourhoods -->
  
  <!-- House 1 (left) -->
  <path d="M12 28 L18 22 L24 28 V42 H12 V28Z" fill="white"/>
  <rect x="15" y="34" width="6" height="8" rx="1" fill="#C8102E"/>
  
  <!-- House 2 (center, larger) -->
  <path d="M26 26 L34 18 L42 26 V44 H26 V26Z" fill="white"/>
  <rect x="31" y="34" width="8" height="10" rx="1" fill="#C8102E"/>
  
  <!-- House 3 (right) -->
  <path d="M40 28 L46 22 L52 28 V42 H40 V28Z" fill="white"/>
  <rect x="43" y="34" width="6" height="8" rx="1" fill="#C8102E"/>
  
  <!-- Community connection dots (grey) -->
  <circle cx="18" cy="38" r="2" fill="#6B7280"/>
  <circle cx="34" cy="39" r="2" fill="#6B7280"/>
  <circle cx="46" cy="38" r="2" fill="#6B7280"/>
  
  <!-- Connection line -->
  <path d="M18 38 L34 39 L46 38" stroke="#6B7280" stroke-width="2" stroke-linecap="round"/>
  
  <!-- Subtle star/sparkle elements (celebration, Stampede vibes) -->
  <path d="M16 19 L17 21 L19 22 L17 23 L16 25 L15 23 L13 22 L15 21 Z" 
        fill="white" opacity="0.3"/>
  <path d="M48 19 L49 21 L51 22 L49 23 L48 25 L47 23 L45 22 L47 21 Z" 
        fill="white" opacity="0.3"/>
</svg>
